<svg width="512" height="532" viewBox="0 0 512 532" fill="none" xmlns="http://www.w3.org/2000/svg">
<mask id="path-1-outside-1_23_6630" maskUnits="userSpaceOnUse" x="2" y="2" width="508" height="386" fill="black">
<rect fill="white" x="2" y="2" width="508" height="386"/>
<path d="M455.291 380.531C462.317 384.921 471.614 382.804 475.575 375.528C494.465 340.827 504.896 302.074 505.917 262.436C507.067 217.79 496.236 173.651 474.55 134.608C452.864 95.5656 421.115 63.045 382.604 40.4279C344.094 17.8108 300.228 5.92296 255.567 6.00038C210.906 6.07779 167.081 18.1177 128.649 40.8681C90.217 63.6186 58.5811 96.249 37.0307 135.367C15.4802 174.484 4.80216 218.66 6.10667 263.302C7.26486 302.937 17.8307 341.653 36.8408 376.288C40.8269 383.551 50.1314 385.636 57.1416 381.221L74.3799 370.366C81.3901 365.952 83.4396 356.714 79.564 349.392C65.2868 322.42 57.3517 292.469 56.4564 261.831C55.4147 226.184 63.9413 190.908 81.1497 159.672C98.358 128.436 123.62 102.381 154.308 84.214C184.997 66.0474 219.992 56.4333 255.654 56.3715C291.316 56.3097 326.344 65.8024 357.096 83.8625C387.847 101.923 413.199 127.891 430.515 159.067C447.832 190.243 456.481 225.489 455.563 261.139C454.774 291.78 446.942 321.758 432.759 348.779C428.908 356.115 430.99 365.346 438.016 369.736L455.291 380.531Z"/>
</mask>
<path d="M455.291 380.531C462.317 384.921 471.614 382.804 475.575 375.528C494.465 340.827 504.896 302.074 505.917 262.436C507.067 217.79 496.236 173.651 474.55 134.608C452.864 95.5656 421.115 63.045 382.604 40.4279C344.094 17.8108 300.228 5.92296 255.567 6.00038C210.906 6.07779 167.081 18.1177 128.649 40.8681C90.217 63.6186 58.5811 96.249 37.0307 135.367C15.4802 174.484 4.80216 218.66 6.10667 263.302C7.26486 302.937 17.8307 341.653 36.8408 376.288C40.8269 383.551 50.1314 385.636 57.1416 381.221L74.3799 370.366C81.3901 365.952 83.4396 356.714 79.564 349.392C65.2868 322.42 57.3517 292.469 56.4564 261.831C55.4147 226.184 63.9413 190.908 81.1497 159.672C98.358 128.436 123.62 102.381 154.308 84.214C184.997 66.0474 219.992 56.4333 255.654 56.3715C291.316 56.3097 326.344 65.8024 357.096 83.8625C387.847 101.923 413.199 127.891 430.515 159.067C447.832 190.243 456.481 225.489 455.563 261.139C454.774 291.78 446.942 321.758 432.759 348.779C428.908 356.115 430.99 365.346 438.016 369.736L455.291 380.531Z" stroke="#FD15AB" stroke-width="8" stroke-linejoin="round" mask="url(#path-1-outside-1_23_6630)"/>
<path d="M65.3238 360.577L63.1262 356.86L65.0314 352.297L65.8356 350.197L68.8766 342.923L71.161 346.787L69.1343 351.647L68.3618 353.354L65.3238 360.577ZM53.4525 350.543C56.1581 349.018 58.7735 348.195 61.2985 348.076C63.8153 347.961 66.1012 348.46 68.156 349.573C70.1978 350.683 71.8573 352.318 73.1344 354.478C74.4163 356.646 75.0412 358.875 75.0091 361.165C74.9639 363.451 74.2571 365.632 72.8887 367.708C71.5203 369.784 69.4874 371.582 66.79 373.103C64.0843 374.628 61.4731 375.449 58.9563 375.563C56.4312 375.683 54.1478 375.188 52.106 374.078C50.0512 372.965 48.3828 371.324 47.1008 369.156C45.8237 366.996 45.2077 364.773 45.2529 362.487C45.285 360.197 45.9853 358.014 47.3537 355.938C48.7139 353.867 50.7468 352.069 53.4525 350.543ZM55.6645 354.285C53.6023 355.448 52.0611 356.757 51.0409 358.212C50.0076 359.664 49.4654 361.166 49.4142 362.716C49.3499 364.263 49.7419 365.754 50.5901 367.189C51.4431 368.632 52.5717 369.713 53.9757 370.432C55.3715 371.156 56.974 371.448 58.7832 371.308C60.5793 371.165 62.5084 370.512 64.5707 369.349C66.6329 368.186 68.1806 366.879 69.2139 365.427C70.2341 363.971 70.7763 362.47 70.8406 360.923C70.8966 359.381 70.4981 357.888 69.6451 356.445C68.7969 355.011 67.6749 353.931 66.2791 353.208C64.8702 352.48 63.2678 352.188 61.4717 352.331C59.6625 352.471 57.7268 353.122 55.6645 354.285Z" fill="#9E28F9"/>
<path d="M51.5208 332.358L39.7524 337.315L38.0306 333.417L58.1377 324.947L59.825 328.767L56.3429 330.234L56.4348 330.442C57.711 330.449 58.9307 330.808 60.094 331.521C61.2448 332.228 62.1511 333.33 62.813 334.829C63.3793 336.111 63.5969 337.365 63.4659 338.592C63.3222 339.813 62.8119 340.942 61.9348 341.98C61.0539 343.008 59.7844 343.872 58.1263 344.57L45.3368 349.958L43.6208 346.073L55.9389 340.884C57.3091 340.307 58.2335 339.47 58.7122 338.375C59.191 337.279 59.1644 336.13 58.6326 334.926C58.3112 334.198 57.8084 333.552 57.1243 332.987C56.4363 332.414 55.6163 332.045 54.664 331.881C53.708 331.709 52.6602 331.868 51.5208 332.358Z" fill="#9E28F9"/>
<path d="M53.6958 310.039C54.3258 312.094 54.4277 313.993 54.0012 315.735C53.5629 317.472 52.6628 318.978 51.3011 320.254C49.9274 321.524 48.1545 322.476 45.9822 323.111C43.8371 323.738 41.8244 323.893 39.9441 323.574C38.061 323.247 36.4398 322.498 35.0805 321.326C33.7184 320.146 32.7403 318.587 32.1464 316.65C31.7855 315.473 31.6312 314.275 31.6834 313.056C31.7357 311.837 32.0452 310.666 32.6122 309.544C33.1792 308.421 34.053 307.411 35.2337 306.513C36.4053 305.618 37.9409 304.893 39.8406 304.338L41.2857 303.915L46.3692 320.497L43.3153 321.39L39.4516 308.787C38.3791 309.101 37.4959 309.596 36.802 310.272C36.099 310.951 35.6274 311.755 35.3872 312.684C35.1441 313.603 35.1836 314.588 35.5056 315.638C35.8553 316.779 36.4424 317.692 37.2668 318.379C38.0794 319.059 39.0064 319.498 40.0478 319.697C41.0773 319.889 42.1147 319.832 43.1599 319.527L45.5459 318.829C46.9456 318.42 48.0613 317.827 48.8931 317.051C49.7221 316.266 50.2596 315.355 50.5057 314.316C50.7427 313.28 50.6793 312.169 50.3157 310.983C50.0798 310.213 49.7556 309.543 49.3432 308.973C48.9217 308.406 48.4175 307.956 47.8305 307.625C47.2436 307.293 46.5855 307.101 45.8561 307.048L45.3732 303.001C46.6037 302.977 47.7683 303.238 48.8669 303.785C49.9537 304.326 50.9166 305.125 51.7556 306.181C52.5828 307.232 53.2295 308.518 53.6958 310.039Z" fill="#9E28F9"/>
<path d="M48.1469 286.713C48.5288 288.829 48.4052 290.729 47.7759 292.413C47.1356 294.089 46.0644 295.484 44.5623 296.598C43.0492 297.704 41.1775 298.45 38.947 298.834C36.7446 299.213 34.7294 299.137 32.9015 298.606C31.072 298.066 29.5521 297.136 28.342 295.817C27.1302 294.488 26.3443 292.827 25.9842 290.832C25.7655 289.621 25.7541 288.412 25.9501 287.206C26.1461 286 26.5918 284.871 27.2872 283.819C27.9825 282.768 28.969 281.863 30.2466 281.105C31.5149 280.348 33.1243 279.802 35.0748 279.466L36.5586 279.211L39.6404 296.278L36.5047 296.818L34.1625 283.846C33.0613 284.036 32.1264 284.427 31.3579 285.021C30.5801 285.616 30.0171 286.362 29.6689 287.258C29.319 288.144 29.2416 289.128 29.4368 290.209C29.6488 291.383 30.1232 292.359 30.86 293.135C31.5857 293.904 32.4535 294.446 33.4632 294.762C34.4619 295.071 35.4979 295.132 36.5711 294.948L39.0208 294.526C40.458 294.278 41.6351 293.816 42.5521 293.139C43.4675 292.453 44.1087 291.608 44.4757 290.603C44.8334 289.6 44.9021 288.488 44.6817 287.267C44.5386 286.475 44.2962 285.772 43.9545 285.158C43.6034 284.546 43.1563 284.042 42.6132 283.645C42.0701 283.249 41.4399 282.982 40.7225 282.846L40.7221 278.768C41.9459 278.884 43.0704 279.276 44.0957 279.945C45.11 280.606 45.9709 281.51 46.6783 282.657C47.3747 283.796 47.8642 285.148 48.1469 286.713Z" fill="#9E28F9"/>
<path d="M32.3631 269.036L45.2967 268.299L45.549 272.539L23.7662 273.781L23.524 269.711L27.0694 269.509L27.0533 269.239C25.8701 268.804 24.8969 268.072 24.1337 267.044C23.3699 266.006 22.9394 264.67 22.8421 263.034C22.7538 261.55 22.9884 260.233 23.546 259.082C24.0942 257.931 24.9598 257.014 26.1428 256.33C27.3258 255.646 28.8155 255.253 30.6119 255.151L44.4672 254.361L44.7195 258.6L31.3747 259.361C29.7958 259.451 28.5865 259.933 27.7467 260.806C26.8975 261.679 26.5156 262.835 26.6012 264.271C26.6597 265.254 26.9244 266.117 27.3954 266.858C27.8659 267.59 28.5256 268.155 29.3746 268.552C30.2135 268.941 31.2097 269.102 32.3631 269.036Z" fill="#9E28F9"/>
<path d="M48.4349 215.715C48.0714 217.727 47.2923 219.405 46.0975 220.746C44.9027 222.087 43.3998 223.029 41.5889 223.573C39.778 224.116 37.762 224.197 35.5409 223.814C33.3104 223.43 31.4349 222.679 29.9141 221.562C28.3934 220.445 27.3065 219.057 26.6535 217.398C26.0005 215.738 25.8557 213.902 26.2192 211.889C26.5826 209.876 27.3618 208.199 28.5566 206.858C29.7514 205.517 31.2589 204.575 33.0792 204.033C34.8994 203.492 36.9247 203.413 39.1552 203.797C41.3763 204.179 43.2425 204.928 44.7539 206.044C46.2653 207.159 47.3475 208.547 48.0005 210.206C48.6535 211.865 48.7983 213.702 48.4349 215.715ZM44.9238 215.096C45.1593 213.791 45.0092 212.65 44.4734 211.674C43.9376 210.698 43.1328 209.906 42.059 209.298C40.9868 208.681 39.7601 208.254 38.3789 208.016C37.0071 207.78 35.7094 207.772 34.4858 207.994C33.2545 208.205 32.2115 208.679 31.3568 209.416C30.5021 210.152 29.9569 211.173 29.7213 212.478C29.4841 213.792 29.6372 214.942 30.1806 215.93C30.7258 216.907 31.5391 217.706 32.6206 218.324C33.6944 218.932 34.9173 219.354 36.2891 219.59C37.6703 219.828 38.9718 219.841 40.1938 219.628C41.4174 219.407 42.4519 218.927 43.2973 218.188C44.1443 217.44 44.6865 216.41 44.9238 215.096Z" fill="#9E28F9"/>
<path d="M34.525 180.584L37.7971 181.54L34.1833 193.328L30.9112 192.372L34.525 180.584ZM52.8436 195.262L29.4752 188.43C28.1664 188.047 27.1677 187.444 26.479 186.622C25.7813 185.796 25.3632 184.85 25.2247 183.784C25.0771 182.714 25.1726 181.628 25.5112 180.523C25.761 179.708 26.0429 179.031 26.3569 178.491C26.6618 177.949 26.9118 177.554 27.1069 177.305L30.1148 179.22C30.002 179.394 29.8634 179.62 29.6991 179.898C29.5257 180.173 29.3738 180.523 29.2433 180.948C28.9408 181.935 28.9697 182.713 29.3301 183.282C29.6932 183.842 30.3383 184.258 31.2654 184.529L54.0884 191.201L52.8436 195.262Z" fill="#9E28F9"/>
<path d="M63.304 132.993L61.9388 136.642C61.4279 136.539 60.8895 136.529 60.3235 136.612C59.7623 136.686 59.2086 136.907 58.6623 137.273C58.116 137.639 57.6188 138.201 57.1706 138.959C56.5585 139.994 56.2828 140.991 56.3433 141.949C56.3956 142.902 56.7889 143.585 57.523 143.999C58.1582 144.358 58.807 144.414 59.4694 144.168C60.1318 143.921 60.8927 143.351 61.7522 142.455L64.209 139.862C65.6349 138.362 67.0192 137.425 68.3618 137.052C69.7044 136.678 71.048 136.871 72.3925 137.629C73.5309 138.27 74.3527 139.169 74.8581 140.323C75.36 141.465 75.5203 142.756 75.3392 144.197C75.1628 145.63 74.6265 147.105 73.7301 148.621C72.4867 150.724 71.0185 152.184 69.3256 153.002C67.6244 153.814 65.8433 153.897 63.9822 153.25L65.5269 149.409C66.5892 149.714 67.5619 149.66 68.4452 149.245C69.3202 148.825 70.083 148.065 70.7336 146.964C71.4421 145.766 71.7568 144.666 71.6777 143.665C71.5903 142.66 71.1796 141.95 70.4454 141.536C69.8515 141.201 69.2223 141.14 68.5579 141.352C67.8983 141.556 67.2003 142.048 66.4639 142.829L63.8791 145.61C62.4388 147.135 61.0291 148.068 59.6501 148.41C58.2758 148.744 56.9123 148.53 55.5595 147.767C54.4377 147.135 53.6392 146.271 53.1641 145.177C52.6889 144.083 52.5392 142.858 52.7148 141.5C52.8821 140.138 53.3827 138.752 54.2164 137.342C55.4164 135.312 56.8065 133.966 58.3865 133.302C59.9583 132.634 61.5975 132.531 63.304 132.993Z" fill="#9E28F9"/>
<path d="M87.8013 140.767L63.5363 123.126L66.0509 119.827L68.9117 121.907L69.127 121.625C68.9086 121.162 68.6988 120.57 68.4975 119.85C68.2963 119.131 68.2655 118.312 68.4049 117.395C68.5368 116.473 69.0132 115.473 69.8342 114.396C70.902 112.996 72.215 112.007 73.7732 111.431C75.3314 110.855 77.0266 110.747 78.8589 111.108C80.6968 111.461 82.5694 112.331 84.4766 113.717C86.3838 115.104 87.7808 116.605 88.6677 118.221C89.5469 119.832 89.9379 121.451 89.8407 123.077C89.7359 124.698 89.1496 126.209 88.0817 127.61C87.278 128.664 86.4406 129.396 85.5697 129.804C84.7044 130.205 83.887 130.419 83.1174 130.444C82.3478 130.47 81.6979 130.448 81.1676 130.379L81.0125 130.582L90.3762 137.389L87.8013 140.767ZM74.8831 126.231C76.124 127.133 77.3465 127.747 78.5508 128.072C79.7551 128.398 80.8769 128.417 81.9164 128.131C82.9482 127.84 83.8344 127.208 84.575 126.237C85.3443 125.228 85.7154 124.187 85.6883 123.113C85.6535 122.035 85.2971 120.98 84.6191 119.948C83.9469 118.909 83.0209 117.961 81.8414 117.104C80.6772 116.257 79.4996 115.67 78.3087 115.343C77.1236 115.008 76.0017 114.988 74.9431 115.284C73.8903 115.572 72.9763 116.224 72.2012 117.241C71.4549 118.22 71.08 119.235 71.0764 120.286C71.0787 121.329 71.4073 122.358 72.0623 123.373C72.7174 124.387 73.6576 125.34 74.8831 126.231Z" fill="#9E28F9"/>
<path d="M101.642 112.003C100.681 112.997 99.6246 113.723 98.4721 114.18C97.3127 114.631 96.1438 114.757 94.9655 114.56C93.7938 114.356 92.6821 113.769 91.6305 112.8C90.7251 111.966 90.1444 111.109 89.8884 110.23C89.6324 109.35 89.6134 108.464 89.8314 107.571C90.0494 106.677 90.4168 105.793 90.9335 104.917C91.4503 104.042 92.022 103.191 92.6486 102.366C93.4452 101.323 94.0916 100.477 94.5878 99.8269C95.077 99.1706 95.3664 98.6327 95.4558 98.2131C95.5453 97.7935 95.402 97.4104 95.0259 97.0639L94.9528 96.9965C94.0405 96.156 93.0901 95.7567 92.1018 95.7987C91.12 95.8339 90.1521 96.3452 89.1981 97.3327C88.2046 98.3611 87.6549 99.3865 87.5491 100.409C87.4429 101.418 87.5633 102.295 87.9103 103.039L84.4683 105.294C83.8223 104.055 83.5156 102.833 83.5484 101.627C83.5807 100.409 83.8755 99.2449 84.433 98.1366C84.9834 97.0218 85.7159 95.9911 86.6305 95.0444C87.2358 94.4178 87.954 93.8244 88.7849 93.2641C89.6154 92.6905 90.5253 92.2801 91.5144 92.0329C92.5101 91.7789 93.5679 91.7945 94.6878 92.0796C95.8006 92.3583 96.9421 93.0367 98.1121 94.1147L108.768 103.932L105.886 106.915L103.692 104.894L103.574 105.016C103.787 105.586 103.897 106.248 103.906 107.002C103.914 107.757 103.748 108.562 103.407 109.42C103.066 110.277 102.477 111.138 101.642 112.003ZM99.7761 109.029C100.592 108.184 101.119 107.305 101.357 106.391C101.601 105.471 101.599 104.601 101.352 103.78C101.104 102.947 100.663 102.238 100.029 101.654L97.9608 99.7487C97.967 99.9603 97.8675 100.268 97.6623 100.671C97.4568 101.061 97.198 101.485 96.886 101.944C96.5671 102.397 96.2546 102.836 95.9484 103.262C95.6353 103.682 95.3744 104.034 95.1658 104.318C94.6699 104.981 94.2757 105.641 93.983 106.298C93.697 106.949 93.5831 107.577 93.6414 108.185C93.6994 108.779 94.0069 109.332 94.5641 109.846C95.3371 110.558 96.1919 110.818 97.1284 110.625C98.0579 110.426 98.9405 109.894 99.7761 109.029Z" fill="#9E28F9"/>
<path d="M119.855 95.0007C118.493 96.1171 116.984 96.7722 115.328 96.9662C113.674 97.147 111.996 96.8508 110.296 96.0777C108.597 95.2914 106.979 94.004 105.442 92.2156C103.905 90.4271 102.895 88.6482 102.41 86.8787C101.933 85.1032 101.939 83.4398 102.429 81.8883C102.918 80.3369 103.84 79.006 105.195 77.8956C106.243 77.0373 107.233 76.5194 108.167 76.342C109.101 76.1514 109.939 76.1383 110.679 76.3027C111.427 76.4611 112.048 76.6317 112.542 76.8144L112.739 76.6523L105.695 68.4535L108.98 65.7616L127.939 87.8261L124.73 90.455L122.518 87.8801L122.243 88.1052C122.348 88.6192 122.408 89.2555 122.423 90.0141C122.446 90.7667 122.28 91.5759 121.925 92.4416C121.571 93.3074 120.881 94.1604 119.855 95.0007ZM118.22 91.6592C119.165 90.8849 119.753 89.9865 119.985 88.9639C120.219 87.9281 120.127 86.8341 119.712 85.6817C119.303 84.5234 118.599 83.3624 117.599 82.1988C116.611 81.0496 115.579 80.1821 114.501 79.5963C113.424 79.0105 112.352 78.7441 111.287 78.7971C110.222 78.85 109.209 79.2696 108.25 80.0559C107.261 80.8662 106.653 81.7928 106.426 82.8358C106.198 83.8787 106.29 84.9728 106.7 86.1179C107.117 87.2571 107.794 88.3726 108.732 89.4643C109.683 90.5704 110.706 91.4271 111.802 92.0345C112.898 92.6418 113.998 92.934 115.101 92.9109C116.206 92.8747 117.246 92.4575 118.22 91.6592Z" fill="#9E28F9"/>
<path d="M141.172 79.581C139.364 80.7427 137.549 81.3622 135.73 81.4396C133.912 81.5041 132.181 81.0689 130.536 80.1341C128.893 79.1864 127.439 77.7739 126.175 75.8967C124.927 74.0431 124.177 72.1842 123.926 70.3201C123.683 68.4508 123.928 66.7127 124.66 65.1057C125.401 63.4936 126.624 62.1399 128.329 61.0447C129.364 60.3795 130.482 59.9035 131.682 59.6169C132.881 59.3303 134.111 59.3001 135.37 59.5263C136.63 59.7525 137.872 60.2996 139.095 61.1676C140.314 62.0277 141.476 63.2786 142.582 64.9202L143.423 66.169L128.83 75.542L127.052 72.9029L138.143 65.7791C137.519 64.8523 136.775 64.1544 135.911 63.6853C135.042 63.2083 134.121 62.9843 133.147 63.0132C132.182 63.0371 131.237 63.3458 130.313 63.9395C129.309 64.5843 128.596 65.3907 128.175 66.3587C127.757 67.3138 127.606 68.3106 127.724 69.3492C127.844 70.3748 128.208 71.3392 128.816 72.2425L130.205 74.3043C131.019 75.5139 131.928 76.4046 132.929 76.9765C133.939 77.5433 134.985 77.7998 136.067 77.746C137.144 77.6843 138.205 77.3183 139.248 76.6479C139.926 76.2129 140.48 75.722 140.91 75.1753C141.336 74.6207 141.622 74.0204 141.769 73.3746C141.916 72.7287 141.907 72.0539 141.741 71.3502L145.528 69.7787C145.919 70.9345 146.012 72.1067 145.808 73.2954C145.607 74.4711 145.118 75.6009 144.341 76.6848C143.567 77.7558 142.511 78.7212 141.172 79.581Z" fill="#9E28F9"/>
<path d="M161.868 49.1991L158.724 51.5005C158.354 51.1335 157.91 50.8292 157.392 50.5877C156.882 50.342 156.299 50.2221 155.642 50.228C154.985 50.2339 154.261 50.4308 153.47 50.8186C152.39 51.3481 151.612 52.0301 151.137 52.8646C150.656 53.6906 150.609 54.4784 150.995 55.2279C151.328 55.8763 151.839 56.2796 152.527 56.4377C153.215 56.5959 154.164 56.5365 155.374 56.2595L158.849 55.4407C160.864 54.9694 162.534 54.9463 163.86 55.3717C165.186 55.797 166.202 56.696 166.908 58.0686C167.506 59.2308 167.699 60.4334 167.486 61.6765C167.278 62.907 166.702 64.0751 165.759 65.181C164.824 66.2826 163.566 67.2212 161.985 67.9968C159.791 69.0727 157.764 69.4872 155.901 69.2406C154.035 68.9855 152.502 68.0761 151.304 66.5125L154.704 64.149C155.423 64.9881 156.265 65.4766 157.231 65.6148C158.192 65.7446 159.246 65.528 160.394 64.965C161.644 64.3521 162.511 63.6053 162.995 62.7246C163.474 61.8355 163.521 61.0163 163.136 60.2668C162.824 59.6604 162.333 59.2635 161.661 59.076C160.998 58.8844 160.145 58.9127 159.102 59.1608L155.416 60.067C153.375 60.5509 151.686 60.5571 150.347 60.0855C149.016 59.6097 147.996 58.6813 147.285 57.3002C146.696 56.1549 146.504 54.9943 146.708 53.8184C146.913 52.6425 147.461 51.5352 148.354 50.4964C149.242 49.4492 150.421 48.5649 151.892 47.8435C154.009 46.8053 155.91 46.4427 157.593 46.7559C159.272 47.0607 160.697 47.8751 161.868 49.1991Z" fill="#9E28F9"/>
<path d="M186.662 26.4632L191.851 25.2621L206.207 45.1495L206.54 45.0726L210.229 21.0086L215.419 19.8075L222.28 48.0777L218.211 49.0194L213.246 28.5621L212.983 28.623L209.579 50.9734L206.203 51.7549L192.886 33.2598L192.623 33.3207L197.591 53.7918L193.523 54.7335L186.662 26.4632Z" fill="#9E28F9"/>
<path d="M229.959 47.5649L227.366 25.9014L231.586 25.4197L234.179 47.0833L229.959 47.5649ZM229.097 22.3155C228.363 22.3993 227.704 22.2268 227.118 21.798C226.541 21.3587 226.212 20.7959 226.129 20.1095C226.046 19.4137 226.234 18.7918 226.693 18.2438C227.16 17.6853 227.761 17.3642 228.495 17.2804C229.228 17.1967 229.884 17.3744 230.461 17.8137C231.046 18.2425 231.381 18.8048 231.464 19.5006C231.546 20.187 231.354 20.8094 230.886 21.3679C230.427 21.9159 229.831 22.2318 229.097 22.3155Z" fill="#9E28F9"/>
<path d="M264.482 29.5085L260.632 30.1903C260.471 29.6979 260.216 29.2292 259.865 28.7841C259.525 28.339 259.06 27.9744 258.473 27.6903C257.886 27.4062 257.152 27.2642 256.272 27.2642C255.069 27.2642 254.065 27.5341 253.26 28.0739C252.455 28.6042 252.053 29.2907 252.053 30.1335C252.053 30.8627 252.323 31.4498 252.863 31.8949C253.402 32.34 254.274 32.7045 255.476 32.9886L258.942 33.7841C260.95 34.2481 262.446 34.9631 263.431 35.929C264.416 36.8949 264.908 38.1496 264.908 39.6932C264.908 41 264.529 42.1648 263.772 43.1875C263.024 44.2008 261.977 44.9962 260.632 45.5739C259.297 46.1515 257.749 46.4403 255.988 46.4403C253.544 46.4403 251.551 45.9195 250.007 44.8778C248.464 43.8267 247.517 42.3352 247.167 40.4034L251.272 39.7784C251.527 40.8485 252.053 41.6581 252.848 42.2074C253.644 42.7472 254.681 43.017 255.959 43.017C257.351 43.017 258.464 42.7282 259.297 42.1506C260.131 41.5634 260.547 40.8485 260.547 40.0057C260.547 39.3239 260.292 38.7509 259.78 38.2869C259.278 37.8229 258.507 37.4725 257.465 37.2358L253.772 36.4261C251.736 35.9621 250.23 35.2235 249.255 34.2102C248.289 33.197 247.806 31.9138 247.806 30.3608C247.806 29.0729 248.166 27.946 248.885 26.9801C249.605 26.0142 250.599 25.2614 251.868 24.7216C253.137 24.1723 254.591 23.8977 256.229 23.8977C258.587 23.8977 260.443 24.4091 261.797 25.4318C263.151 26.4451 264.046 27.804 264.482 29.5085Z" fill="#9E28F9"/>
<path d="M289.208 26.4235L288.803 29.8085L276.962 28.4569L277.368 25.072L289.208 26.4235ZM281.164 20.2442L285.384 20.7259L282.931 41.2188C282.833 42.0368 282.882 42.6667 283.077 43.1083C283.273 43.5405 283.555 43.8539 283.923 44.0484C284.301 44.2345 284.721 44.3539 285.182 44.4065C285.521 44.4452 285.82 44.4555 286.079 44.4375C286.339 44.4195 286.541 44.4044 286.686 44.3923L287.031 47.963C286.775 48.0291 286.416 48.0833 285.953 48.1258C285.489 48.1777 284.917 48.1697 284.239 48.1018C283.126 47.9938 282.115 47.6783 281.205 47.155C280.295 46.6318 279.595 45.9038 279.106 44.9711C278.617 44.0384 278.45 42.9186 278.607 41.6116L281.164 20.2442Z" fill="#9E28F9"/>
<path d="M300.509 50.5746L305.654 29.3719L309.654 30.2976L308.836 33.6657L309.058 33.717C309.722 32.6655 310.623 31.9263 311.759 31.4993C312.907 31.0652 314.104 30.9922 315.349 31.2805C315.608 31.3403 315.91 31.42 316.256 31.5195C316.611 31.6212 316.887 31.7093 317.083 31.7839L316.125 35.7318C315.97 35.6473 315.687 35.5284 315.276 35.375C314.868 35.2123 314.451 35.0819 314.027 34.9837C313.049 34.7573 312.127 34.7626 311.26 34.9995C310.406 35.2293 309.669 35.6565 309.049 36.281C308.432 36.8963 308.012 37.6641 307.789 38.5843L304.646 51.5323L300.509 50.5746Z" fill="#9E28F9"/>
<path d="M329.034 59.16C327.009 58.4401 325.425 57.3897 324.282 56.0088C323.152 54.6223 322.483 53.0026 322.274 51.1497C322.077 49.2912 322.374 47.3015 323.165 45.1808C323.945 43.0866 325.026 41.3805 326.406 40.0624C327.796 38.7474 329.367 37.894 331.119 37.502C332.881 37.1133 334.717 37.2582 336.626 37.9369C337.786 38.3492 338.839 38.9396 339.786 39.7081C340.732 40.4766 341.486 41.4228 342.047 42.5468C342.608 43.6708 342.896 44.9738 342.909 46.4558C342.926 47.9289 342.589 49.5927 341.898 51.4473L341.372 52.8582L325.03 47.0495L326.141 44.0681L338.561 48.4828C338.952 47.4357 339.083 46.4324 338.956 45.4726C338.832 44.5041 338.469 43.6467 337.868 42.9004C337.276 42.1574 336.463 41.6019 335.428 41.234C334.303 40.8344 333.219 40.7606 332.175 41.0127C331.144 41.259 330.237 41.7405 329.454 42.4572C328.684 43.1683 328.109 44.034 327.729 45.0544L326.86 47.3837C326.351 48.7502 326.159 49.9983 326.283 51.1279C326.417 52.2606 326.827 53.2353 327.513 54.0519C328.202 54.8596 329.131 55.4712 330.3 55.8867C331.058 56.1563 331.79 56.2956 332.493 56.3046C333.201 56.3048 333.863 56.1683 334.48 55.8953C335.097 55.6222 335.645 55.2091 336.124 54.6558L339.659 56.6809C338.942 57.6823 338.036 58.4605 336.94 59.0155C335.856 59.5648 334.639 59.8608 333.289 59.9036C331.952 59.9407 330.533 59.6928 329.034 59.16Z" fill="#9E28F9"/>
<path d="M366.374 57.1649L362.606 56.0762C362.687 55.5674 362.671 55.0379 362.56 54.4878C362.458 53.9419 362.208 53.4134 361.811 52.9022C361.414 52.391 360.82 51.9416 360.029 51.5538C358.949 51.0242 357.924 50.8222 356.955 50.9478C355.99 51.0649 355.314 51.4982 354.929 52.2477C354.595 52.8962 354.569 53.5372 354.85 54.1706C355.131 54.8041 355.747 55.512 356.697 56.2942L359.445 58.5277C361.035 59.8244 362.051 61.119 362.494 62.4117C362.936 63.7043 362.805 65.037 362.099 66.4097C361.501 67.5718 360.628 68.4408 359.48 69.0167C358.345 69.5884 357.042 69.835 355.57 69.7566C354.107 69.6824 352.585 69.2574 351.004 68.4818C348.81 67.406 347.259 66.0651 346.349 64.4591C345.444 62.8446 345.276 61.1013 345.845 59.229L349.816 60.4808C349.557 61.545 349.658 62.4965 350.121 63.3352C350.589 64.1655 351.396 64.8621 352.544 65.425C353.794 66.038 354.925 66.2711 355.937 66.1244C356.954 65.9692 357.655 65.5168 358.04 64.7673C358.352 64.161 358.385 63.5389 358.138 62.9011C357.899 62.2675 357.367 61.616 356.54 60.9468L353.594 58.6005C351.978 57.2914 350.964 55.9715 350.552 54.6409C350.148 53.3145 350.301 51.9608 351.012 50.5797C351.601 49.4344 352.439 48.5907 353.527 48.0486C354.615 47.5066 355.852 47.2749 357.238 47.3536C358.629 47.424 360.059 47.8198 361.53 48.5412C363.647 49.5795 365.08 50.8516 365.828 52.3573C366.58 53.8547 366.762 55.4572 366.374 57.1649Z" fill="#9E28F9"/>
<path d="M388.806 71.0095L385.186 69.4947C385.326 68.9992 385.372 68.4723 385.326 67.9138C385.288 67.3604 385.101 66.8072 384.766 66.2543C384.431 65.7014 383.892 65.1869 383.151 64.711C382.139 64.061 381.144 63.7424 380.165 63.7551C379.192 63.76 378.47 64.1119 377.999 64.811C377.592 65.4158 377.491 66.0486 377.696 66.7094C377.902 67.3703 378.431 68.1435 379.284 69.0291L381.756 71.5619C383.186 73.0317 384.046 74.4333 384.335 75.7667C384.624 77.1001 384.337 78.4069 383.475 79.6872C382.745 80.7711 381.776 81.5325 380.567 81.9713C379.371 82.4075 378.047 82.5017 376.592 82.2541C375.146 82.0117 373.682 81.4145 372.2 80.4626C370.145 79.1423 368.758 77.633 368.041 75.9349C367.33 74.2289 367.366 72.48 368.151 70.6884L371.954 72.3885C371.571 73.4142 371.561 74.3698 371.924 75.2552C372.291 76.1328 373.013 76.917 374.089 77.6079C375.26 78.3602 376.357 78.722 377.381 78.6932C378.41 78.6566 379.16 78.2887 379.631 77.5897C380.012 77.0242 380.117 76.4108 379.946 75.7496C379.783 75.0935 379.329 74.3858 378.585 73.6265L375.93 70.9591C374.476 69.4739 373.622 68.0476 373.367 66.68C373.12 65.3176 373.431 63.9923 374.298 62.7042C375.018 61.636 375.95 60.8958 377.095 60.4836C378.24 60.0714 379.498 59.9843 380.867 60.2224C382.241 60.4526 383.618 61.0104 384.996 61.8957C386.98 63.17 388.256 64.5972 388.824 66.1773C389.398 67.7495 389.391 69.3603 388.806 71.0095Z" fill="#9E28F9"/>
<path d="M402.966 103.657L424.361 83.9451L427.411 87.1018L417.194 96.5149L417.441 96.7703L436.135 96.1326L439.975 100.106L422.191 100.542L418.609 119.849L414.938 116.049L417.963 100.479L412.671 100.682L406.016 106.813L402.966 103.657Z" fill="#9E28F9"/>
<path d="M422.817 125.463L440.464 112.633L442.953 115.897L440.15 117.935L440.287 118.116C441.478 117.742 442.65 117.756 443.802 118.159C444.968 118.564 445.939 119.275 446.714 120.292C446.874 120.502 447.056 120.756 447.259 121.054C447.468 121.359 447.624 121.602 447.727 121.785L444.441 124.174C444.376 124.01 444.234 123.739 444.016 123.359C443.806 122.973 443.568 122.607 443.304 122.261C442.696 121.463 441.981 120.876 441.16 120.502C440.352 120.129 439.508 119.982 438.627 120.061C437.754 120.134 436.935 120.448 436.169 121.005L425.392 128.84L422.817 125.463Z" fill="#9E28F9"/>
<path d="M438.131 147.522L457.137 136.806L459.298 140.462L440.293 151.178L438.131 147.522ZM461.161 136.999C460.785 136.363 460.677 135.696 460.836 134.998C461.008 134.303 461.395 133.786 461.997 133.446C462.607 133.102 463.26 133.033 463.954 133.24C464.661 133.45 465.202 133.873 465.578 134.509C465.954 135.144 466.056 135.81 465.884 136.505C465.725 137.203 465.34 137.724 464.73 138.068C464.127 138.408 463.473 138.473 462.766 138.263C462.072 138.056 461.537 137.635 461.161 136.999Z" fill="#9E28F9"/>
<path d="M468.834 172.16L466.65 168.904C467.039 168.565 467.367 168.15 467.636 167.656C467.908 167.172 468.057 166.606 468.082 165.958C468.106 165.311 467.941 164.585 467.585 163.779C467.099 162.679 466.444 161.865 465.622 161.339C464.808 160.808 464.013 160.707 463.236 161.034C462.564 161.317 462.132 161.792 461.94 162.458C461.748 163.125 461.764 164.063 461.988 165.274L462.655 168.753C463.039 170.769 462.984 172.415 462.492 173.691C462 174.967 461.043 175.905 459.62 176.504C458.416 177.011 457.189 177.117 455.941 176.821C454.705 176.53 453.549 175.882 452.473 174.876C451.401 173.879 450.509 172.575 449.798 170.963C448.811 168.729 448.485 166.703 448.821 164.887C449.166 163.067 450.158 161.621 451.797 160.551L454.032 164.063C453.149 164.713 452.615 165.508 452.43 166.449C452.254 167.386 452.424 168.439 452.941 169.608C453.503 170.882 454.219 171.787 455.088 172.326C455.966 172.86 456.793 172.963 457.57 172.636C458.198 172.372 458.623 171.915 458.844 171.267C459.069 170.628 459.08 169.786 458.877 168.741L458.131 165.049C457.736 163.006 457.808 161.342 458.348 160.057C458.892 158.78 459.879 157.84 461.31 157.237C462.497 156.737 463.681 156.629 464.862 156.912C466.043 157.195 467.139 157.813 468.149 158.764C469.168 159.711 470.008 160.934 470.67 162.433C471.623 164.59 471.901 166.486 471.506 168.122C471.119 169.754 470.229 171.1 468.834 172.16Z" fill="#9E28F9"/>
<path d="M481.157 192.593L477.885 193.55L474.392 182.156L477.664 181.199L481.157 192.593ZM483.618 182.788L484.863 186.849L465.053 192.64C464.262 192.871 463.703 193.163 463.375 193.515C463.056 193.865 462.881 194.247 462.849 194.661C462.83 195.081 462.888 195.513 463.024 195.956C463.124 196.282 463.234 196.561 463.354 196.792C463.475 197.023 463.569 197.202 463.638 197.33L460.495 199.048C460.332 198.839 460.139 198.531 459.915 198.123C459.681 197.718 459.46 197.19 459.251 196.541C458.906 195.478 458.791 194.426 458.908 193.386C459.025 192.346 459.414 191.418 460.075 190.603C460.737 189.788 461.699 189.196 462.962 188.827L483.618 182.788Z" fill="#9E28F9"/>
<path d="M455.103 212.415C454.99 211.791 454.939 211.213 454.949 210.683C454.95 210.155 454.983 209.755 455.05 209.484L458.661 209.9C458.594 210.699 458.628 211.395 458.764 211.986C458.9 212.578 459.219 213.066 459.721 213.45C460.225 213.844 460.985 214.136 462.001 214.326L463.522 214.597L483.885 202.991L484.693 207.464L468.989 215.775L469.029 215.999L486.697 218.563L487.507 223.05L461.538 218.398C460.344 218.181 459.303 217.822 458.414 217.322C457.515 216.823 456.791 216.17 456.241 215.361C455.691 214.553 455.312 213.571 455.103 212.415Z" fill="#9E28F9"/>
<path d="M479.635 234.986L466.702 235.72L466.448 231.481L488.231 230.244L488.475 234.314L484.929 234.515L484.945 234.784C486.129 235.22 487.102 235.952 487.866 236.98C488.63 238.018 489.061 239.355 489.158 240.99C489.247 242.474 489.013 243.792 488.455 244.943C487.908 246.093 487.042 247.01 485.859 247.694C484.676 248.377 483.187 248.77 481.39 248.872L467.535 249.658L467.281 245.419L480.626 244.661C482.205 244.572 483.415 244.091 484.254 243.218C485.103 242.344 485.485 241.189 485.399 239.752C485.34 238.769 485.075 237.907 484.604 237.166C484.133 236.433 483.473 235.869 482.624 235.471C481.785 235.082 480.789 234.921 479.635 234.986Z" fill="#9E28F9"/>
<path d="M474.575 260.62L479.753 260.885L479.709 261.622L488.408 270.823L488.105 275.899L478.202 265.407L478.242 264.74L474.575 260.62ZM467.419 256.301L496.463 257.949L496.21 262.189L467.166 260.541L467.419 256.301ZM466.597 270.055L477.416 262.844L480.205 265.933L466.286 275.259L466.597 270.055Z" fill="#9E28F9"/>
<path d="M463.91 286.159C464.156 284.798 464.63 283.612 465.332 282.599C466.044 281.588 466.943 280.844 468.03 280.368C469.115 279.902 470.362 279.79 471.771 280.032C472.984 280.241 473.941 280.646 474.641 281.247C475.34 281.848 475.847 282.584 476.162 283.455C476.476 284.326 476.661 285.27 476.718 286.289C476.775 287.308 476.772 288.335 476.71 289.372C476.627 290.684 476.56 291.748 476.508 292.566C476.466 293.385 476.525 293.996 476.683 294.398C476.841 294.8 477.172 295.044 477.676 295.131L477.774 295.148C478.997 295.358 480.006 295.176 480.803 294.602C481.598 294.038 482.117 293.08 482.361 291.729C482.615 290.322 482.503 289.159 482.024 288.24C481.552 287.333 480.967 286.66 480.266 286.223L481.871 282.449C483.094 283.14 484.026 284.002 484.667 285.034C485.315 286.078 485.716 287.219 485.868 288.455C486.029 289.694 485.993 290.961 485.759 292.256C485.604 293.113 485.337 294.004 484.959 294.929C484.588 295.864 484.06 296.706 483.377 297.453C482.692 298.209 481.806 298.772 480.719 299.143C479.642 299.514 478.319 299.565 476.751 299.295L462.473 296.837L463.21 292.755L466.149 293.261L466.18 293.093C465.687 292.73 465.228 292.233 464.803 291.602C464.378 290.972 464.07 290.203 463.878 289.296C463.685 288.388 463.696 287.343 463.91 286.159ZM467.105 287.646C466.897 288.802 466.947 289.829 467.256 290.728C467.564 291.636 468.048 292.368 468.707 292.923C469.375 293.49 470.133 293.846 470.983 293.992L473.754 294.47C473.632 294.295 473.544 293.982 473.491 293.531C473.445 293.091 473.424 292.592 473.429 292.036C473.442 291.481 473.458 290.94 473.476 290.415C473.503 289.891 473.525 289.453 473.54 289.1C473.584 288.272 473.545 287.501 473.424 286.788C473.3 286.085 473.046 285.493 472.661 285.014C472.284 284.545 471.722 284.247 470.976 284.118C469.94 283.94 469.087 284.187 468.417 284.86C467.756 285.534 467.319 286.463 467.105 287.646Z" fill="#9E28F9"/>
<path d="M462.594 297.549L483.535 303.671L482.34 307.569L478.932 306.572L478.853 306.83C479.874 307.602 480.556 308.576 480.899 309.752C481.251 310.93 481.216 312.207 480.794 313.583C480.366 314.978 479.681 316.05 478.738 316.8C477.792 317.559 476.677 317.998 475.393 318.116L475.326 318.333C476.292 319.158 476.94 320.211 477.27 321.491C477.61 322.774 477.549 324.167 477.088 325.67C476.508 327.562 475.44 328.932 473.883 329.779C472.323 330.635 470.343 330.712 467.943 330.011L453.901 325.905L455.145 321.844L468.807 325.838C470.224 326.253 471.369 326.169 472.242 325.585C473.114 325.001 473.714 324.175 474.041 323.107C474.446 321.785 474.352 320.638 473.759 319.666C473.175 318.696 472.247 318.025 470.974 317.653L457.627 313.75L458.868 309.703L472.788 313.773C473.924 314.105 474.946 314.019 475.853 313.515C476.76 313.011 477.387 312.193 477.734 311.061C477.97 310.291 477.983 309.521 477.774 308.749C477.571 307.99 477.172 307.306 476.576 306.697C475.977 306.098 475.205 305.66 474.26 305.384L461.349 301.609L462.594 297.549Z" fill="#9E28F9"/>
<path d="M456.167 342.12L467.935 347.078L466.214 350.976L446.107 342.506L447.794 338.686L451.276 340.153L451.368 339.945C450.497 339.033 449.928 337.92 449.66 336.605C449.397 335.303 449.596 333.902 450.258 332.404C450.825 331.122 451.609 330.106 452.613 329.358C453.621 328.622 454.813 328.209 456.187 328.12C457.558 328.04 459.072 328.349 460.73 329.048L473.52 334.435L471.804 338.32L459.486 333.131C458.115 332.554 456.858 332.471 455.714 332.883C454.569 333.295 453.731 334.103 453.199 335.307C452.878 336.034 452.741 336.835 452.79 337.708C452.836 338.59 453.124 339.426 453.655 340.215C454.183 341.012 455.02 341.648 456.167 342.12Z" fill="#9E28F9"/>
<path d="M441.1 351.479L460.106 362.195L458.017 365.728L454.998 364.026L454.882 364.222C455.702 365.141 456.15 366.198 456.225 367.392C456.303 368.599 456.017 369.753 455.366 370.853C455.231 371.081 455.064 371.346 454.865 371.646C454.66 371.955 454.492 372.192 454.362 372.357L450.823 370.362C450.951 370.239 451.151 370.003 451.422 369.656C451.701 369.314 451.952 368.955 452.173 368.58C452.684 367.716 452.954 366.841 452.983 365.955C453.015 365.082 452.821 364.266 452.401 363.508C451.989 362.754 451.37 362.144 450.545 361.679L438.939 355.135L441.1 351.479Z" fill="#9E28F9"/>
<path d="M88.9347 377.909H96.5199L104.531 397.455H104.872L112.884 377.909H120.469V407H114.503V388.065H114.261L106.733 406.858H102.67L95.142 387.994H94.9006V407H88.9347V377.909ZM125.423 407V385.182H131.474V407H125.423ZM128.462 382.369C127.563 382.369 126.791 382.071 126.147 381.474C125.513 380.868 125.195 380.144 125.195 379.301C125.195 378.468 125.513 377.753 126.147 377.156C126.791 376.55 127.563 376.247 128.462 376.247C129.362 376.247 130.129 376.55 130.763 377.156C131.407 377.753 131.729 378.468 131.729 379.301C131.729 380.144 131.407 380.868 130.763 381.474C130.129 382.071 129.362 382.369 128.462 382.369ZM142.372 394.386V407H136.321V385.182H142.088V389.031H142.344C142.827 387.762 143.636 386.759 144.773 386.02C145.909 385.272 147.287 384.898 148.906 384.898C150.421 384.898 151.742 385.229 152.869 385.892C153.996 386.555 154.872 387.502 155.497 388.733C156.122 389.955 156.435 391.413 156.435 393.108V407H150.384V394.188C150.393 392.852 150.052 391.811 149.361 391.062C148.67 390.305 147.718 389.926 146.506 389.926C145.691 389.926 144.972 390.101 144.347 390.452C143.731 390.802 143.248 391.313 142.898 391.986C142.557 392.649 142.382 393.449 142.372 394.386ZM161.204 407V385.182H167.255V407H161.204ZM164.244 382.369C163.344 382.369 162.572 382.071 161.928 381.474C161.294 380.868 160.977 380.144 160.977 379.301C160.977 378.468 161.294 377.753 161.928 377.156C162.572 376.55 163.344 376.247 164.244 376.247C165.143 376.247 165.91 376.55 166.545 377.156C167.189 377.753 167.511 378.468 167.511 379.301C167.511 380.144 167.189 380.868 166.545 381.474C165.91 382.071 165.143 382.369 164.244 382.369ZM190.256 391.403L184.716 391.744C184.621 391.271 184.418 390.845 184.105 390.466C183.793 390.078 183.381 389.77 182.869 389.543C182.367 389.306 181.766 389.188 181.065 389.188C180.128 389.188 179.337 389.386 178.693 389.784C178.049 390.172 177.727 390.693 177.727 391.347C177.727 391.867 177.936 392.308 178.352 392.668C178.769 393.027 179.484 393.316 180.497 393.534L184.446 394.33C186.567 394.765 188.149 395.466 189.19 396.432C190.232 397.398 190.753 398.667 190.753 400.239C190.753 401.669 190.331 402.923 189.489 404.003C188.655 405.082 187.509 405.925 186.051 406.531C184.602 407.128 182.931 407.426 181.037 407.426C178.149 407.426 175.848 406.825 174.134 405.622C172.429 404.41 171.43 402.762 171.136 400.679L177.088 400.366C177.268 401.247 177.704 401.92 178.395 402.384C179.086 402.838 179.972 403.065 181.051 403.065C182.112 403.065 182.964 402.862 183.608 402.455C184.261 402.038 184.593 401.503 184.602 400.849C184.593 400.3 184.361 399.85 183.906 399.5C183.452 399.14 182.751 398.866 181.804 398.676L178.026 397.923C175.895 397.497 174.309 396.759 173.267 395.707C172.235 394.656 171.719 393.316 171.719 391.688C171.719 390.286 172.098 389.079 172.855 388.065C173.622 387.052 174.697 386.271 176.08 385.722C177.472 385.172 179.1 384.898 180.966 384.898C183.722 384.898 185.89 385.48 187.472 386.645C189.063 387.81 189.991 389.396 190.256 391.403ZM206.168 385.182V389.727H193.029V385.182H206.168ZM196.012 379.955H202.063V400.295C202.063 400.854 202.148 401.29 202.319 401.602C202.489 401.905 202.726 402.118 203.029 402.241C203.342 402.365 203.701 402.426 204.109 402.426C204.393 402.426 204.677 402.402 204.961 402.355C205.245 402.298 205.463 402.256 205.614 402.227L206.566 406.73C206.263 406.825 205.837 406.934 205.288 407.057C204.738 407.189 204.071 407.27 203.285 407.298C201.826 407.355 200.548 407.161 199.45 406.716C198.361 406.271 197.513 405.58 196.907 404.642C196.301 403.705 196.003 402.521 196.012 401.091V379.955ZM210.11 407V385.182H215.977V388.989H216.204C216.602 387.634 217.269 386.612 218.207 385.92C219.144 385.22 220.224 384.869 221.445 384.869C221.748 384.869 222.075 384.888 222.425 384.926C222.776 384.964 223.084 385.016 223.349 385.082V390.452C223.065 390.366 222.672 390.291 222.17 390.224C221.668 390.158 221.209 390.125 220.792 390.125C219.902 390.125 219.106 390.319 218.406 390.707C217.714 391.086 217.165 391.616 216.758 392.298C216.36 392.98 216.161 393.766 216.161 394.656V407H210.11ZM230.877 415.182C230.11 415.182 229.39 415.12 228.718 414.997C228.055 414.884 227.506 414.737 227.07 414.557L228.434 410.04C229.144 410.258 229.783 410.376 230.352 410.395C230.929 410.414 231.426 410.281 231.843 409.997C232.269 409.713 232.615 409.23 232.88 408.548L233.235 407.625L225.408 385.182H231.772L236.289 401.205H236.516L241.076 385.182H247.482L239.002 409.358C238.595 410.532 238.041 411.555 237.34 412.426C236.649 413.307 235.773 413.984 234.712 414.457C233.652 414.94 232.373 415.182 230.877 415.182ZM269.695 407.426C267.488 407.426 265.58 406.957 263.97 406.02C262.37 405.073 261.134 403.757 260.263 402.071C259.392 400.376 258.956 398.411 258.956 396.176C258.956 393.922 259.392 391.953 260.263 390.267C261.134 388.572 262.37 387.256 263.97 386.318C265.58 385.371 267.488 384.898 269.695 384.898C271.901 384.898 273.804 385.371 275.405 386.318C277.015 387.256 278.255 388.572 279.126 390.267C279.998 391.953 280.433 393.922 280.433 396.176C280.433 398.411 279.998 400.376 279.126 402.071C278.255 403.757 277.015 405.073 275.405 406.02C273.804 406.957 271.901 407.426 269.695 407.426ZM269.723 402.739C270.727 402.739 271.565 402.455 272.237 401.886C272.91 401.309 273.416 400.523 273.757 399.528C274.107 398.534 274.283 397.402 274.283 396.134C274.283 394.865 274.107 393.733 273.757 392.739C273.416 391.744 272.91 390.958 272.237 390.381C271.565 389.803 270.727 389.514 269.723 389.514C268.71 389.514 267.857 389.803 267.166 390.381C266.484 390.958 265.968 391.744 265.618 392.739C265.277 393.733 265.107 394.865 265.107 396.134C265.107 397.402 265.277 398.534 265.618 399.528C265.968 400.523 266.484 401.309 267.166 401.886C267.857 402.455 268.71 402.739 269.723 402.739ZM296.101 385.182V389.727H282.635V385.182H296.101ZM285.717 407V383.605C285.717 382.024 286.025 380.712 286.641 379.67C287.266 378.629 288.118 377.848 289.197 377.327C290.277 376.806 291.503 376.545 292.876 376.545C293.804 376.545 294.652 376.616 295.419 376.759C296.196 376.901 296.773 377.028 297.152 377.142L296.072 381.688C295.836 381.612 295.542 381.541 295.192 381.474C294.851 381.408 294.5 381.375 294.141 381.375C293.25 381.375 292.63 381.583 292.28 382C291.929 382.407 291.754 382.98 291.754 383.719V407H285.717ZM309.169 407V377.909H320.817C322.957 377.909 324.742 378.226 326.172 378.861C327.602 379.495 328.677 380.376 329.396 381.503C330.116 382.62 330.476 383.908 330.476 385.366C330.476 386.503 330.249 387.502 329.794 388.364C329.339 389.216 328.714 389.917 327.919 390.466C327.133 391.006 326.233 391.389 325.22 391.616V391.901C326.328 391.948 327.365 392.26 328.331 392.838C329.306 393.416 330.097 394.225 330.703 395.267C331.309 396.299 331.612 397.53 331.612 398.96C331.612 400.504 331.229 401.882 330.462 403.094C329.704 404.296 328.582 405.248 327.095 405.949C325.608 406.65 323.776 407 321.598 407H309.169ZM315.32 401.972H320.334C322.048 401.972 323.298 401.645 324.084 400.991C324.87 400.329 325.263 399.448 325.263 398.349C325.263 397.545 325.069 396.834 324.68 396.219C324.292 395.603 323.738 395.12 323.018 394.77C322.308 394.42 321.461 394.244 320.476 394.244H315.32V401.972ZM315.32 390.082H319.879C320.722 390.082 321.47 389.936 322.124 389.642C322.786 389.339 323.307 388.913 323.686 388.364C324.074 387.814 324.268 387.156 324.268 386.389C324.268 385.338 323.894 384.491 323.146 383.847C322.408 383.203 321.357 382.881 319.993 382.881H315.32V390.082ZM359.947 377.909V407H354.634L341.978 388.69H341.765V407H335.614V377.909H341.012L353.569 396.205H353.825V377.909H359.947ZM371.577 407L363.253 377.909H369.972L374.787 398.122H375.028L380.341 377.909H386.094L391.392 398.165H391.648L396.463 377.909H403.182L394.858 407H388.864L383.324 387.98H383.097L377.571 407H371.577ZM431.566 392.455C431.566 395.627 430.965 398.326 429.762 400.551C428.569 402.777 426.94 404.476 424.876 405.651C422.821 406.815 420.51 407.398 417.944 407.398C415.359 407.398 413.039 406.811 410.984 405.636C408.929 404.462 407.305 402.762 406.112 400.537C404.918 398.312 404.322 395.617 404.322 392.455C404.322 389.282 404.918 386.583 406.112 384.358C407.305 382.133 408.929 380.437 410.984 379.273C413.039 378.098 415.359 377.511 417.944 377.511C420.51 377.511 422.821 378.098 424.876 379.273C426.94 380.437 428.569 382.133 429.762 384.358C430.965 386.583 431.566 389.282 431.566 392.455ZM425.33 392.455C425.33 390.4 425.022 388.667 424.407 387.256C423.801 385.845 422.944 384.775 421.836 384.045C420.728 383.316 419.431 382.952 417.944 382.952C416.457 382.952 415.16 383.316 414.052 384.045C412.944 384.775 412.082 385.845 411.467 387.256C410.861 388.667 410.558 390.4 410.558 392.455C410.558 394.509 410.861 396.242 411.467 397.653C412.082 399.064 412.944 400.134 414.052 400.864C415.16 401.593 416.457 401.957 417.944 401.957C419.431 401.957 420.728 401.593 421.836 400.864C422.944 400.134 423.801 399.064 424.407 397.653C425.022 396.242 425.33 394.509 425.33 392.455Z" fill="#9E28F9"/>
<path d="M504.915 438.115C504.672 437.956 479.233 421.649 446.212 408.742C446.207 408.74 446.202 408.738 446.197 408.736L456.411 383.834C456.879 382.693 456.409 381.383 455.322 380.8C455.068 380.663 428.358 366.701 394.44 356.838C351.463 344.338 304.885 338 256.001 338C207.116 338 160.538 344.338 117.561 356.838C83.6432 366.701 56.9331 380.663 56.6788 380.8C55.5923 381.383 55.1224 382.693 55.5904 383.834L65.8041 408.736C65.7998 408.738 65.7957 408.74 65.7914 408.741C32.7641 421.651 7.32806 437.956 7.08612 438.115C6.31345 438.622 5.89963 439.527 6.02087 440.443C6.1421 441.359 6.77711 442.125 7.65485 442.413L60.2496 459.71L45.4133 516.518C45.1641 517.473 45.5221 518.482 46.3166 519.066C46.7394 519.377 47.2402 519.534 47.7424 519.534C48.184 519.534 48.6266 519.413 49.0175 519.168C49.0234 519.164 49.0383 519.155 49.0442 519.151C50.9821 517.918 97.2305 488.763 160.132 473.869C160.177 473.858 160.221 473.843 160.265 473.83C160.295 473.821 160.326 473.814 160.356 473.804C160.413 473.784 160.469 473.76 160.525 473.736C160.546 473.727 160.569 473.72 160.59 473.71C160.666 473.675 160.74 473.636 160.811 473.593C160.83 473.581 160.847 473.568 160.866 473.556C160.918 473.523 160.97 473.49 161.02 473.453C161.046 473.433 161.07 473.411 161.096 473.39C161.136 473.357 161.176 473.325 161.213 473.29C161.239 473.266 161.263 473.24 161.288 473.214C161.323 473.179 161.357 473.144 161.39 473.107C161.397 473.099 161.405 473.092 161.412 473.084C161.426 473.067 161.438 473.048 161.451 473.032C161.49 472.984 161.527 472.935 161.561 472.884C161.581 472.855 161.6 472.826 161.618 472.797C161.631 472.777 161.645 472.758 161.657 472.737C161.675 472.706 161.69 472.672 161.707 472.64C161.722 472.612 161.737 472.583 161.751 472.554C161.782 472.489 161.809 472.423 161.833 472.356C161.84 472.338 161.848 472.32 161.854 472.302C161.884 472.216 161.908 472.128 161.927 472.04C161.932 472.018 161.934 471.995 161.939 471.973C161.951 471.906 161.962 471.839 161.969 471.771C161.972 471.739 161.973 471.708 161.975 471.677C161.979 471.616 161.981 471.556 161.98 471.495C161.98 471.462 161.979 471.43 161.977 471.397C161.974 471.334 161.967 471.271 161.959 471.208C161.955 471.179 161.952 471.151 161.947 471.122C161.932 471.031 161.912 470.941 161.886 470.852L153.752 443.046C181.11 435.885 216.14 429.769 256 429.769C295.859 429.769 330.889 435.885 358.247 443.046L350.113 470.852C350.087 470.941 350.068 471.031 350.052 471.122C350.047 471.151 350.044 471.179 350.041 471.208C350.032 471.271 350.026 471.334 350.022 471.397C350.02 471.43 350.02 471.463 350.019 471.495C350.018 471.556 350.02 471.617 350.024 471.677C350.026 471.708 350.027 471.74 350.03 471.771C350.037 471.839 350.048 471.906 350.061 471.974C350.065 471.996 350.067 472.018 350.072 472.04C350.092 472.129 350.116 472.216 350.145 472.302C350.151 472.321 350.159 472.339 350.166 472.357C350.191 472.424 350.218 472.49 350.248 472.555C350.262 472.584 350.277 472.612 350.292 472.641C350.309 472.673 350.324 472.706 350.342 472.738C350.354 472.758 350.369 472.777 350.381 472.798C350.4 472.827 350.418 472.856 350.438 472.884C350.473 472.935 350.51 472.984 350.548 473.032C350.561 473.049 350.573 473.068 350.587 473.084C350.594 473.092 350.602 473.099 350.609 473.108C350.641 473.145 350.676 473.18 350.711 473.215C350.736 473.24 350.76 473.267 350.786 473.291C350.824 473.326 350.864 473.358 350.904 473.391C350.929 473.411 350.953 473.433 350.98 473.453C351.029 473.49 351.081 473.524 351.134 473.557C351.152 473.569 351.169 473.582 351.188 473.594C351.26 473.636 351.334 473.675 351.41 473.711C351.431 473.72 351.453 473.728 351.474 473.737C351.53 473.761 351.586 473.785 351.644 473.804C351.674 473.815 351.705 473.822 351.735 473.831C351.779 473.844 351.823 473.859 351.868 473.87C414.782 488.767 461.018 517.919 462.956 519.152C462.961 519.156 462.975 519.165 462.981 519.168C463.372 519.413 463.815 519.535 464.257 519.535C464.759 519.535 465.26 519.378 465.682 519.067C466.477 518.484 466.835 517.474 466.586 516.519L451.75 459.711L504.345 442.414C505.223 442.125 505.857 441.36 505.979 440.444C506.101 439.527 505.687 438.622 504.915 438.115ZM65.4786 458.739C65.7998 457.509 65.1093 456.241 63.9017 455.844L14.0871 439.462C22.6364 434.348 42.9269 422.847 67.5456 413.224C67.5738 413.213 67.6024 413.202 67.6307 413.191L88.5129 464.104C88.7669 464.723 89.268 465.209 89.895 465.444C90.0757 465.512 90.2627 465.554 90.451 465.577L90.4505 465.581L146.549 472.374C100.147 485.099 64.4155 504.491 51.568 512.003L65.4786 458.739ZM149.102 444.293L156.242 468.699L99.3042 461.805C108.499 457.702 125.75 450.704 149.102 444.293ZM91.9864 459.888L60.8854 384.06C67.5394 380.738 90.6525 369.676 118.905 361.46C161.445 349.088 207.57 342.814 256 342.814C304.43 342.814 350.555 349.087 393.095 361.46C421.347 369.676 444.461 380.738 451.115 384.06L420.014 459.888C406.976 453.611 342.693 424.955 256 424.955C169.283 424.955 104.99 453.627 91.9864 459.888ZM412.696 461.805L355.759 468.699L362.898 444.293C386.251 450.704 403.502 457.702 412.696 461.805ZM448.099 455.844C446.891 456.241 446.201 457.509 446.522 458.739L460.432 512.003C447.578 504.486 411.854 485.099 365.451 472.374L421.55 465.581L421.55 465.578C421.738 465.555 421.925 465.512 422.106 465.445C422.732 465.209 423.234 464.724 423.488 464.104L444.37 413.191C444.399 413.202 444.428 413.213 444.457 413.225C469.071 422.846 489.363 434.348 497.913 439.462L448.099 455.844Z" fill="#FD15AB"/>
<path d="M209.685 338.521C209.688 338.178 212.082 321.926 215.005 302.407L220.318 266.917L192.613 227.221C177.375 205.387 164.493 186.727 163.986 185.752C162.553 182.996 162.679 180.093 164.383 176.63C165.107 175.151 173.466 161.979 182.956 147.348C198.11 123.986 200.386 120.648 201.641 119.941C203.328 118.998 204.437 118.934 206.615 119.662C208.372 120.262 262.806 146.242 264.168 147.136C265.372 147.928 265.623 149.801 264.883 152.463C263.893 156.026 262.251 158.705 259.152 161.814C254.349 166.633 248.95 168.772 241.623 168.757C235.824 168.744 229.927 167.257 223.836 164.255C222.489 163.591 221.333 163.055 221.268 163.055C221.118 163.055 212.714 179.242 212.714 179.551C212.714 179.765 215.125 180.986 218.071 182.458C227.178 186.991 233.658 191.488 240.442 197.988C255.391 212.315 264.753 230.484 271.303 257.887C271.496 258.68 272.668 253.098 275.75 236.814C278.07 224.557 280.099 214.7 280.294 214.738C280.487 214.738 286.624 217.888 293.929 221.649C301.234 225.41 307.418 228.408 307.673 228.309C307.928 228.095 315.276 220.738 324.003 211.702C332.73 202.666 340.016 195.258 340.194 195.236C340.654 195.236 340.151 207.989 339.532 211.76C339.255 213.474 338.687 215.893 338.272 217.145C337.856 218.388 331.013 232.552 323.066 248.602L308.617 277.786V308.465V339.146H259.148C212.269 339.146 209.678 339.142 209.685 338.521ZM269.86 309.699C271.778 298.368 273.439 289.522 273.696 289.267C273.944 289.01 277.444 286.46 281.471 283.578C287.234 279.451 288.527 278.383 287.543 278.57C278.883 280.198 271.297 280.413 265.485 279.191C261.688 278.398 257.407 276.943 252.182 274.7L249.146 273.393L256.692 281L264.238 288.607L265.009 306.646C265.783 324.729 266.156 331.218 266.366 330.219C266.43 329.919 268 320.69 269.86 309.699ZM304.867 216.307C299.537 213.221 291.052 203.036 292.054 200.928C292.493 200.006 330.34 158.416 330.959 158.178C333.879 157.063 347.58 173.456 348.492 179.163C348.738 180.706 351.239 178.284 326.655 200.349C316.243 209.692 307.483 217.336 307.188 217.338C306.892 217.34 305.849 216.864 304.867 216.307ZM284.313 195.479C276.557 190.374 265.47 179.176 266.225 177.209C266.332 176.951 274.795 165.292 285.043 151.316C300.908 129.684 303.805 125.909 304.549 125.909C309.177 125.909 325.119 140.09 328.927 147.594C330.432 150.556 331.595 149.008 309.09 173.964C293.181 191.606 288.279 196.833 287.569 196.912C286.965 196.912 285.851 196.486 284.313 195.479ZM268.027 165.556C269.461 160.1 270.095 155.491 269.973 151.447C269.823 146.788 269.373 145.286 267.539 143.476C267.005 142.94 262.409 140.362 257.323 137.728C252.237 135.093 248.033 132.907 247.981 132.871C247.938 132.871 252.438 125.184 258.003 115.874L268.119 98.9428H270.42C272.274 98.9642 273.366 99.2642 276.047 100.421C287.103 105.241 300.808 116.12 299.951 119.399C299.823 119.913 268.675 165.513 267.97 166.224C267.863 166.224 267.906 166.01 268.034 165.517L268.027 165.556ZM227.358 123.181C219.304 119.358 212.593 116.109 212.445 115.961C212.115 115.64 230.131 83.0599 231.013 82.3892C232.644 81.1464 239.549 82.9678 247.003 86.6021C255.56 90.7678 261.826 95.6599 261.826 98.1735C261.826 99.0092 242.899 130.201 242.413 130.164C242.188 130.145 235.413 127.003 227.358 123.181Z" fill="black"/>
</svg>
