<svg width="593" height="828" viewBox="0 0 593 828" fill="none" xmlns="http://www.w3.org/2000/svg">
<path d="M259.81 620.056C265.419 705.474 251.922 749.899 199.81 823.056L476.81 817.056C417.547 714.64 373.812 689.691 259.81 620.056ZM259.81 620.056C259.81 620.056 637.312 789.057 583.312 571.057C529.312 353.057 391.021 302.582 267.81 130.556M259.81 620.056C213.22 834.372 -21.6912 619.056 6.30997 497.056C34.3112 375.057 255.808 182.556 267.81 130.556M267.81 130.556C279.812 78.5563 276.808 -33.4443 249.81 16.5563C222.812 66.5569 260.781 86.0365 267.81 130.556Z" stroke="#FD15AB" stroke-width="8"/>
<path d="M56.3112 331.057C37.584 421.423 44.8361 473.056 82.3112 566.557C76.7686 457.742 100.154 399.163 162.311 296.557M96.811 460.057C146.756 458.443 168.097 501.093 203.811 592.557M240.811 546.557C169.811 409.557 225.811 380.057 246.311 447.057M267.311 405.557C308.311 577.557 360.811 405.557 333.311 377.557C333.311 500.962 559.811 713.057 333.311 693.557" stroke="#FD15AB" stroke-width="8"/>
<path d="M456.81 350.057C376.481 393.075 392.31 432.557 470.31 460.057C548.311 487.557 609.811 560.057 422.81 531.557" stroke="#FD15AB" stroke-width="8"/>
</svg>
